<?xml version="1.0" encoding="iso-8859-1"?>
<!-- Generator: Adobe Illustrator 19.0.0, SVG Export Plug-In . SVG Version: 6.00 Build 0)  -->
<svg version="1.1" id="Layer_1" xmlns="http://www.w3.org/2000/svg" xmlns:xlink="http://www.w3.org/1999/xlink" x="0px" y="0px"
	 viewBox="0 0 453 453" style="enable-background:new 0 0 453 453;" xml:space="preserve">
<g>
	<path style="fill:#DD4545;" d="M279.112,66.995l-3.35,25.837c-3.21,24.748-24.295,43.261-49.26,43.261s-46.05-18.513-49.26-43.261
		l-3.35-25.837c11.922,16.082,31.043,26.508,52.611,26.508C248.069,93.503,267.19,83.077,279.112,66.995z"/>
	<path style="fill:#F75959;" d="M297.163,252.453c-6.241-40.512,39.984-131.94,39.984-131.94
		c-56.103-2.077-15.581-115.327-15.581-115.327L287.812,0l-0.506,3.798l-8.199,63.194l-3.346,25.835
		c-3.206,24.748-24.296,43.266-49.26,43.266s-46.053-18.518-49.26-43.266l-3.346-25.835l-8.199-63.194L165.19,0l-33.754,5.186
		c0,0,40.522,113.25-15.581,115.327c0,0,46.225,91.428,39.984,131.94c-5.079,33.066-39.898,71.641-52.542,126.496
		c2.109-0.129,4.239-0.194,6.381-0.194c46.962,0,86.597,31.34,99.148,74.245h35.348c12.551-42.905,52.186-74.245,99.148-74.245
		c2.141,0,4.272,0.065,6.381,0.194C337.061,324.094,302.241,285.519,297.163,252.453z"/>
</g>
<g>
</g>
<g>
</g>
<g>
</g>
<g>
</g>
<g>
</g>
<g>
</g>
<g>
</g>
<g>
</g>
<g>
</g>
<g>
</g>
<g>
</g>
<g>
</g>
<g>
</g>
<g>
</g>
<g>
</g>
</svg>
