<?xml version="1.0" encoding="iso-8859-1"?>
<!-- Generator: Adobe Illustrator 19.0.0, SVG Export Plug-In . SVG Version: 6.00 Build 0)  -->
<svg version="1.1" id="Capa_1" xmlns="http://www.w3.org/2000/svg" xmlns:xlink="http://www.w3.org/1999/xlink" x="0px" y="0px"
	 viewBox="0 0 512 512" style="enable-background:new 0 0 512 512;" xml:space="preserve">
<path style="fill:#9E2525;" d="M376.2,49.505H186.203c-8.284,0-15,6.716-15,15v345.514c0,8.284,6.716,15,15,15h226.872
	c8.284,0,15-6.716,15-15V101.38C428.075,72.776,404.804,49.505,376.2,49.505z"/>
<path style="fill:#333333;" d="M487.647,84.198h-143.78v48.705h143.781C501.097,132.903,512,122,512,108.55l0,0
	C512,95.101,501.097,84.198,487.647,84.198z"/>
<path style="fill:#525252;" d="M24.353,132.903h143.781V84.198H24.353C10.903,84.198,0,95.101,0,108.55l0,0
	C0,122,10.903,132.903,24.353,132.903z"/>
<path style="fill:#BDD1DE;" d="M355.412,49.505H113.925c-16.569,0-30,13.431-30,30v367.99c0,8.284,6.716,15,15,15h256.487
	c8.284,0,15-6.716,15-15V64.505C370.412,56.221,363.696,49.505,355.412,49.505z"/>
<path style="fill:#E7F7FB;" d="M227.168,49.505H113.925c-16.569,0-30,13.431-30,30v367.99c0,8.284,6.716,15,15,15h128.244V49.505
	H227.168z"/>
<path style="fill:#CF3A3A;" d="M370.412,289.102V49.505H113.925c-16.569,0-30,13.431-30,30v209.597H370.412z"/>
<path style="fill:#FF6161;" d="M227.168,289.102V49.505H113.925c-16.569,0-30,13.431-30,30v209.597H227.168z"/>
<path style="fill:#CF3A3A;" d="M83.925,351.098v96.396c0,8.284,6.716,15,15,15h256.487c8.284,0,15-6.716,15-15v-96.396H83.925z"/>
<path style="fill:#FF6161;" d="M227.168,351.098H83.925v96.396c0,8.284,6.716,15,15,15h128.244V351.098H227.168z"/>
<g>
</g>
<g>
</g>
<g>
</g>
<g>
</g>
<g>
</g>
<g>
</g>
<g>
</g>
<g>
</g>
<g>
</g>
<g>
</g>
<g>
</g>
<g>
</g>
<g>
</g>
<g>
</g>
<g>
</g>
</svg>
