<?xml version="1.0" encoding="iso-8859-1"?>
<!-- Generator: Adobe Illustrator 19.0.0, SVG Export Plug-In . SVG Version: 6.00 Build 0)  -->
<svg version="1.1" id="Layer_1" xmlns="http://www.w3.org/2000/svg" xmlns:xlink="http://www.w3.org/1999/xlink" x="0px" y="0px"
	 viewBox="0 0 507.5 507.5" style="enable-background:new 0 0 507.5 507.5;" xml:space="preserve">
<g>
	<path style="fill:#71C084;" d="M401.519,35.121l-33.006-19.809l-20.365,29.767c-45.427,66.383-143.369,66.383-188.796,0
		l-20.356-29.767l0,0L105.98,35.121c-35.028,21.018-58.942,56.47-65.315,96.821L0.164,388.419
		c-1.262,8.042,4.943,15.307,13.082,15.307h52.665c6.506,0,12.041-4.723,13.074-11.149l33.527-209.54v291.01l3.531,0.883
		c90.412,22.607,185,22.607,275.412,0l3.54-0.883v-291.01l33.527,209.54c1.024,6.427,6.568,11.149,13.074,11.149h52.657
		c8.139,0,14.354-7.265,13.082-15.307l-40.501-256.477C460.469,91.591,436.546,56.14,401.519,35.121"/>
	<g>
		<path style="fill:#4C8056;" d="M116.042,422.391l-3.531-0.883v52.842l3.531,0.883c90.412,22.607,185,22.607,275.412,0l3.54-0.883
			v-52.842l-3.54,0.883C300.998,444.751,206.41,444.76,116.042,422.391"/>
		<path style="fill:#4C8056;" d="M4.719,359.591l-4.555,28.831c-1.262,8.033,4.943,15.307,13.082,15.307h52.657
			c6.506,0,12.05-4.723,13.082-11.149l5.27-32.989H4.719z"/>
		<path style="fill:#4C8056;" d="M502.781,359.591l4.555,28.831c1.262,8.033-4.943,15.307-13.083,15.307h-52.657
			c-6.506,0-12.05-4.723-13.082-11.149l-5.27-32.989H502.781z"/>
		<path style="fill:#4C8056;" d="M138.991,15.316l35.31,8.828c52.683,12.156,107.441,12.156,160.124,0l34.083-8.828l-20.365,29.758
			c-45.418,66.392-143.369,66.392-188.787,0L138.991,15.316z"/>
		<path style="fill:#4C8056;" d="M236.095,191.867c-2.26,0-4.52-0.865-6.241-2.586c-3.452-3.452-3.452-9.031,0-12.482l35.31-35.31
			c3.452-3.452,9.031-3.452,12.482,0c3.452,3.452,3.452,9.031,0,12.482l-35.31,35.31
			C240.615,191.002,238.355,191.867,236.095,191.867"/>
		<path style="fill:#4C8056;" d="M271.405,191.867c-2.26,0-4.52-0.865-6.241-2.586l-35.31-35.31c-3.452-3.452-3.452-9.031,0-12.482
			c3.452-3.452,9.031-3.452,12.482,0l35.31,35.31c3.452,3.452,3.452,9.031,0,12.482
			C275.925,191.002,273.665,191.867,271.405,191.867"/>
		<path style="fill:#4C8056;" d="M306.716,191.867c-2.26,0-4.52-0.865-6.241-2.586c-3.452-3.452-3.452-9.031,0-12.482l35.31-35.31
			c3.452-3.452,9.031-3.452,12.482,0c3.452,3.452,3.452,9.031,0,12.482l-35.31,35.31
			C311.235,191.002,308.975,191.867,306.716,191.867"/>
		<path style="fill:#4C8056;" d="M342.026,191.867c-2.26,0-4.52-0.865-6.241-2.586l-35.31-35.31c-3.452-3.452-3.452-9.031,0-12.482
			s9.031-3.452,12.482,0l35.31,35.31c3.452,3.452,3.452,9.031,0,12.482C346.546,191.002,344.286,191.867,342.026,191.867"/>
		<path style="fill:#4C8056;" d="M165.474,191.867c-2.26,0-4.52-0.865-6.241-2.586c-3.452-3.452-3.452-9.031,0-12.482l35.31-35.31
			c3.452-3.452,9.031-3.452,12.482,0s3.452,9.031,0,12.482l-35.31,35.31C169.994,191.002,167.734,191.867,165.474,191.867"/>
		<path style="fill:#4C8056;" d="M200.785,191.867c-2.26,0-4.52-0.865-6.241-2.586l-35.31-35.31c-3.452-3.452-3.452-9.031,0-12.482
			s9.031-3.452,12.482,0l35.31,35.31c3.452,3.452,3.452,9.031,0,12.482C205.304,191.002,203.044,191.867,200.785,191.867"/>
		<path style="fill:#4C8056;" d="M394.991,271.314V251.46l-30.014-22.519c-3.513-2.648-8.439-2.295-11.538,0.821l-20.242,20.242
			l-20.242-20.242c-3.452-3.443-9.031-3.443-12.482,0l-20.242,20.242l-20.242-20.242c-3.452-3.443-9.031-3.443-12.482,0
			l-20.242,20.242l-20.242-20.242c-3.452-3.443-9.031-3.443-12.482,0l-20.242,20.242l-20.242-20.242
			c-3.107-3.116-8.024-3.46-11.538-0.821l-30.014,22.519v19.694c1.845,0,3.699-0.424,5.297-1.607l29.184-21.884l21.071,21.063
			c3.452,3.452,9.031,3.452,12.482,0l20.242-20.242l20.242,20.242c3.452,3.452,9.031,3.452,12.482,0l20.242-20.242l20.242,20.242
			c3.452,3.452,9.031,3.452,12.482,0l20.242-20.242l20.242,20.242c3.452,3.452,9.031,3.452,12.482,0l21.071-21.063l29.184,21.884
			c1.589,1.192,3.443,1.766,5.288,1.766H394.991z"/>
		<path style="fill:#4C8056;" d="M394.991,324.279v-19.853l-30.014-22.519c-3.513-2.648-8.439-2.304-11.538,0.821l-20.242,20.242
			l-20.242-20.242c-3.452-3.443-9.031-3.443-12.482,0l-20.242,20.242l-20.242-20.242c-3.452-3.443-9.031-3.443-12.482,0
			l-20.242,20.242l-20.242-20.242c-3.452-3.443-9.031-3.443-12.482,0l-20.242,20.242l-20.242-20.242
			c-3.107-3.107-8.024-3.46-11.538-0.821l-30.014,22.519v19.694c1.845,0,3.699-0.424,5.297-1.607l29.184-21.884l21.071,21.063
			c3.452,3.452,9.031,3.452,12.482,0l20.242-20.242l20.242,20.242c3.452,3.452,9.031,3.452,12.482,0l20.242-20.242l20.242,20.242
			c3.452,3.452,9.031,3.452,12.482,0l20.242-20.242l20.242,20.242c3.452,3.452,9.031,3.452,12.482,0l21.071-21.063l29.184,21.884
			c1.589,1.192,3.443,1.766,5.288,1.766H394.991z"/>
		<path style="fill:#4C8056;" d="M394.991,377.245v-19.853l-30.014-22.519c-3.513-2.648-8.439-2.295-11.538,0.821l-20.242,20.242
			l-20.242-20.242c-3.452-3.443-9.031-3.443-12.482,0l-20.242,20.242l-20.242-20.242c-3.452-3.443-9.031-3.443-12.482,0
			l-20.242,20.242l-20.242-20.242c-3.452-3.443-9.031-3.443-12.482,0l-20.242,20.242l-20.242-20.242
			c-3.107-3.116-8.024-3.46-11.538-0.821l-30.014,22.519v19.703c1.845,0,3.699-0.424,5.297-1.615l29.184-21.884l21.071,21.063
			c3.452,3.452,9.031,3.452,12.482,0l20.242-20.242l20.242,20.242c3.452,3.452,9.031,3.452,12.482,0l20.242-20.242l20.242,20.242
			c3.452,3.452,9.031,3.452,12.482,0l20.242-20.242l20.242,20.242c3.452,3.452,9.031,3.452,12.482,0l21.071-21.063l29.184,21.884
			c1.589,1.192,3.443,1.766,5.288,1.766H394.991z"/>
	</g>
	<g>
		<path style="fill:#71C084;" d="M465.871,361.704l4.414,17.929c0.989,4.025,4.599,6.718,8.563,6.718
			c0.697,0,1.412-0.079,2.119-0.256c4.732-1.165,7.618-5.95,6.453-10.681l-3.893-15.819h-17.743
			C465.783,360.291,465.694,360.989,465.871,361.704"/>
		<path style="fill:#71C084;" d="M439.388,361.704l4.414,17.929c0.989,4.025,4.599,6.718,8.563,6.718
			c0.697,0,1.412-0.079,2.119-0.256c4.732-1.165,7.618-5.95,6.453-10.681l-3.893-15.819H439.3
			C439.3,360.291,439.211,360.989,439.388,361.704"/>
		<path style="fill:#71C084;" d="M68.201,359.591H50.458l-3.893,15.819c-1.165,4.732,1.721,9.516,6.453,10.681
			c0.706,0.177,1.421,0.256,2.119,0.256c3.964,0,7.574-2.684,8.563-6.709l4.414-17.938C68.29,360.986,68.201,360.298,68.201,359.591
			"/>
		<path style="fill:#71C084;" d="M23.972,359.591l-3.893,15.819c-1.165,4.732,1.721,9.516,6.453,10.681
			c0.706,0.177,1.421,0.256,2.127,0.256c3.964,0,7.565-2.684,8.554-6.709l4.414-17.938c0.177-0.715,0.088-1.404,0.088-2.11H23.972z"
			/>
		<path style="fill:#71C084;" d="M350.854,447.988c0,4.882,3.946,8.828,8.828,8.828c4.882,0,8.828-3.946,8.828-8.828V429.38
			c0-0.644-0.23-1.201-0.362-1.801c-5.756,1.174-11.52,2.251-17.293,3.24V447.988z"/>
		<path style="fill:#71C084;" d="M315.543,456.816c0,4.882,3.946,8.828,8.828,8.828c4.882,0,8.828-3.946,8.828-8.828v-21.884
			c0-0.468-0.194-0.874-0.265-1.324c-5.791,0.803-11.591,1.518-17.39,2.154V456.816z"/>
		<path style="fill:#71C084;" d="M280.233,465.643c0,4.882,3.946,8.828,8.828,8.828c4.882,0,8.828-3.946,8.828-8.828v-27.401
			c0-0.291-0.141-0.547-0.168-0.83c-5.826,0.441-11.652,0.803-17.487,1.077V465.643z"/>
		<path style="fill:#71C084;" d="M244.948,439.033c0,0.044-0.026,0.079-0.026,0.124v26.483c0,4.882,3.946,8.828,8.828,8.828
			c4.882,0,8.828-3.946,8.828-8.828v-26.483c0-0.044-0.026-0.079-0.026-0.124C256.68,439.122,250.818,439.122,244.948,439.033"/>
		<path style="fill:#71C084;" d="M218.44,474.471c4.882,0,8.828-3.946,8.828-8.828V438.49c-5.835-0.265-11.661-0.627-17.487-1.077
			c-0.026,0.291-0.168,0.538-0.168,0.83v27.401C209.612,470.525,213.558,474.471,218.44,474.471"/>
		<path style="fill:#71C084;" d="M183.129,465.643c4.882,0,8.828-3.946,8.828-8.828v-21.045c-5.809-0.636-11.599-1.351-17.39-2.154
			c-0.071,0.45-0.265,0.847-0.265,1.315v21.884C174.302,461.697,178.248,465.643,183.129,465.643"/>
		<path style="fill:#71C084;" d="M147.819,456.816c4.882,0,8.828-3.946,8.828-8.828v-17.161c-5.773-0.989-11.538-2.074-17.293-3.24
			c-0.132,0.591-0.362,1.156-0.362,1.792v18.609C138.991,452.87,142.937,456.816,147.819,456.816"/>
	</g>
</g>
<g>
</g>
<g>
</g>
<g>
</g>
<g>
</g>
<g>
</g>
<g>
</g>
<g>
</g>
<g>
</g>
<g>
</g>
<g>
</g>
<g>
</g>
<g>
</g>
<g>
</g>
<g>
</g>
<g>
</g>
</svg>
